<svg width="143.000000" height="18.000000" viewBox="0 0 143 18" fill="none" xmlns="http://www.w3.org/2000/svg" xmlns:xlink="http://www.w3.org/1999/xlink">
	<desc>
			Created with Pixso.
	</desc>
	<defs>
		<clipPath id="clip10_439">
			<rect id="Logo" rx="0.000000" width="142.540909" height="17.540909" transform="translate(0.229545 0.229545)" fill="white" fill-opacity="0"/>
		</clipPath>
	</defs>
	<rect id="Logo" rx="0.000000" width="142.540909" height="17.540909" transform="translate(0.229545 0.229545)" fill="#FFFFFF" fill-opacity="0"/>
	<g clip-path="url(#clip10_439)">
		<path id="path" d="M13.43 2L2.59 2C0.61 2 -0.63 4.14 0.33 5.89L6.99 17.45C7.44 18.18 8.52 18.18 8.97 17.45L15.63 5.89C16.65 4.14 15.41 2 13.43 2ZM7.05 13.95L5.58 11.13L2.08 4.87C1.85 4.48 2.13 3.97 2.64 3.97L7.05 3.97L7.05 13.95ZM13.94 4.87L10.44 11.13L8.97 13.95L8.97 3.97L13.37 3.97C13.88 3.97 14.16 4.48 13.94 4.87Z" fill="#FFFFFF" fill-opacity="1.000000" fill-rule="nonzero"/>
		<path id="TonStaker" d="M53.17 7.74L51.1 7.74C51.02 6.94 50.39 6.47 49.36 6.47C48.31 6.47 47.73 6.96 47.73 7.61C47.71 8.34 48.45 8.67 49.34 8.87L50.25 9.09C52.02 9.49 53.3 10.39 53.3 12.09C53.3 13.95 51.84 15.14 49.35 15.14C46.88 15.14 45.31 14 45.25 11.8L47.33 11.8C47.4 12.82 48.21 13.33 49.33 13.33C50.42 13.33 51.13 12.83 51.13 12.08C51.13 11.4 50.51 11.08 49.4 10.81L48.29 10.53C46.57 10.12 45.51 9.26 45.52 7.76C45.51 5.91 47.14 4.67 49.38 4.67C51.64 4.67 53.14 5.93 53.17 7.74ZM23.61 6.59L20.49 6.59L20.49 4.81L28.85 4.81L28.85 6.59L25.74 6.59L25.74 15L23.61 15L23.61 6.59ZM69.55 15L67.43 15L67.43 4.81L69.55 4.81L69.55 10.26L69.66 10.26L72.11 7.36L74.54 7.36L71.7 10.66L74.68 15L72.2 15L70.12 11.92L69.55 12.57L69.55 15ZM57.05 7.36L58.49 7.36L58.49 8.95L57.05 8.95L57.05 12.65C57.05 13.23 57.34 13.4 57.77 13.4C57.97 13.4 58.19 13.34 58.3 13.32L58.63 14.9C58.41 14.97 58.03 15.08 57.48 15.1C55.94 15.16 54.92 14.42 54.94 12.93L54.94 8.95L53.89 8.95L53.89 7.36L54.94 7.36L54.94 5.53L57.05 5.53L57.05 7.36ZM85.18 15L83.06 15L83.06 7.36L85.12 7.36L85.12 8.69L85.19 8.69C85.47 7.75 86.17 7.25 87.03 7.25C87.24 7.25 87.51 7.28 87.7 7.33L87.7 9.2C87.5 9.14 87.09 9.09 86.8 9.09C85.87 9.09 85.18 9.73 85.18 10.67L85.18 15ZM36.01 11.21C36.01 13.56 34.57 15.15 32.25 15.15C29.94 15.15 28.49 13.56 28.49 11.21C28.49 8.84 29.94 7.26 32.25 7.26C34.57 7.26 36.01 8.84 36.01 11.21ZM40.68 9.02C39.82 9.02 39.24 9.59 39.23 10.58L39.23 15L37.11 15L37.11 7.36L39.13 7.36L39.13 8.71L39.22 8.71C39.56 7.82 40.38 7.26 41.52 7.26C43.11 7.26 44.15 8.35 44.15 10.13L44.15 15L42.03 15L42.03 10.51C42.04 9.58 41.53 9.02 40.68 9.02ZM63.99 13.94C63.62 14.65 62.89 15.14 61.76 15.14C60.31 15.14 59.23 14.37 59.23 12.86C59.23 11.16 60.59 10.65 62.1 10.51C63.42 10.38 63.95 10.32 63.95 9.82L63.95 9.8C63.95 9.17 63.53 8.81 62.81 8.81C62.05 8.81 61.6 9.18 61.45 9.69L59.5 9.53C59.79 8.14 60.99 7.26 62.82 7.26C64.52 7.26 66.07 8.03 66.07 9.84L66.07 15L64.06 15L64.06 13.94L63.99 13.94ZM81.92 12.81C81.62 14.23 80.34 15.15 78.45 15.15C76.1 15.15 74.67 13.63 74.67 11.21C74.67 8.86 76.12 7.26 78.37 7.26C80.39 7.26 81.96 8.54 81.96 11.14L81.96 11.72L76.76 11.72L76.76 11.72C76.76 12.86 77.43 13.56 78.49 13.56C79.19 13.56 79.74 13.26 79.96 12.68L81.92 12.81ZM78.41 8.84C77.47 8.84 76.81 9.54 76.76 10.4L79.97 10.4C79.96 9.5 79.32 8.84 78.41 8.84ZM30.65 11.19C30.65 12.52 31.19 13.5 32.26 13.5C33.31 13.5 33.86 12.52 33.86 11.19C33.86 9.86 33.31 8.87 32.26 8.87C31.19 8.87 30.65 9.86 30.65 11.19ZM61.25 12.79C61.25 13.37 61.72 13.68 62.37 13.68C63.3 13.68 63.96 13.07 63.96 12.26L63.96 11.45C63.71 11.62 62.95 11.73 62.49 11.8C61.75 11.9 61.25 12.2 61.25 12.79Z" fill="#EEEEEE" fill-opacity="1.000000" fill-rule="evenodd"/>
	</g>
</svg>
