<svg width="24.000000" height="24.000000" viewBox="0 0 24 24" fill="none" xmlns="http://www.w3.org/2000/svg" xmlns:xlink="http://www.w3.org/1999/xlink">
	<desc>
			Created with Pixso.
	</desc>
	<defs/>
	<path id="Vector" d="M16.1 7.56C15.79 3.96 13.94 2.49 9.89 2.49L9.76 2.49C5.29 2.49 3.5 4.28 3.5 8.75L3.5 15.27C3.5 19.74 5.29 21.53 9.76 21.53L9.89 21.53C13.91 21.53 15.76 20.08 16.09 16.54" stroke="#FFFFFF" stroke-opacity="1.000000" stroke-width="1.000000" stroke-linejoin="round" stroke-linecap="round"/>
	<path id="Vector" d="M10 12L21.37 12" stroke="#FFFFFF" stroke-opacity="1.000000" stroke-width="1.000000" stroke-linejoin="round" stroke-linecap="round"/>
	<path id="Vector" d="M19.14 8.65L22.5 12L19.14 15.35" stroke="#FFFFFF" stroke-opacity="1.000000" stroke-width="1.000000" stroke-linejoin="round" stroke-linecap="round"/>
	<g opacity="0.000000">
		<path id="Vector" d="M0 24L24 24L24 0L0 0L0 24ZM1 1L1 23L23 23L23 1L1 1Z" fill="#FFFFFF" fill-opacity="1.000000" fill-rule="evenodd"/>
	</g>
</svg>
