<svg width="16.000000" height="16.000000" viewBox="0 0 16 16" fill="none" xmlns="http://www.w3.org/2000/svg" xmlns:xlink="http://www.w3.org/1999/xlink">
	<desc>
			Created with Pixso.
	</desc>
	<defs/>
	<path id="path" d="M13.43 0L2.59 0C0.61 0 -0.63 2.14 0.33 3.89L6.99 15.45C7.44 16.18 8.52 16.18 8.97 15.45L15.63 3.89C16.65 2.14 15.41 0 13.43 0ZM7.05 11.95L5.58 9.13L2.08 2.87C1.85 2.48 2.13 1.97 2.64 1.97L7.05 1.97L7.05 11.95ZM13.94 2.87L10.44 9.13L8.97 11.95L8.97 1.97L13.37 1.97C13.88 1.97 14.16 2.48 13.94 2.87Z" fill="#17181C" fill-opacity="1.000000" fill-rule="nonzero"/>
</svg>
