<svg width="15.000000" height="15.000000" viewBox="0 0 15 15" fill="none" xmlns="http://www.w3.org/2000/svg" xmlns:xlink="http://www.w3.org/1999/xlink">
	<desc>
			Created with Pixso.
	</desc>
	<defs>
		<clipPath id="clip13_1765">
			<rect id="Frame 33829" width="15.000000" height="15.000000" fill="white" fill-opacity="0"/>
		</clipPath>
	</defs>
	<rect id="Frame 33829" width="15.000000" height="15.000000" fill="#FFFFFF" fill-opacity="1.000000"/>
	<g clip-path="url(#clip13_1765)">
		<path id="path" d="M9.23 2L1.78 2C0.42 2 -0.44 3.47 0.22 4.67L4.8 12.62C5.12 13.12 5.85 13.12 6.16 12.62L10.75 4.67C11.44 3.47 10.59 2 9.23 2ZM4.84 10.21L3.83 8.28L1.43 3.97C1.27 3.7 1.46 3.35 1.81 3.35L4.84 3.35L4.84 10.21ZM9.58 3.97L7.17 8.28L6.16 10.21L6.16 3.35L9.19 3.35C9.54 3.35 9.74 3.7 9.58 3.97Z" fill="#3D77EA" fill-opacity="1.000000" fill-rule="nonzero"/>
	</g>
</svg>
