<svg width="28.000000" height="28.000000" viewBox="0 0 28 28" fill="none" xmlns="http://www.w3.org/2000/svg" xmlns:xlink="http://www.w3.org/1999/xlink">
	<desc>
			Created with Pixso.
	</desc>
	<defs/>
	<rect id="money-send" width="28.000000" height="28.000000" fill="#FFFFFF" fill-opacity="0"/>
	<path id="Vector" d="M11.08 16.04C11.08 17.17 11.95 18.08 13.03 18.08L15.22 18.08C16.15 18.08 16.91 17.28 16.91 16.29C16.91 15.23 16.45 14.85 15.76 14.6L12.25 13.38C11.56 13.13 11.09 12.76 11.09 11.68C11.09 10.71 11.85 9.9 12.78 9.9L14.98 9.9C16.05 9.9 16.92 10.81 16.92 11.94" stroke="#FFFFFF" stroke-opacity="1.000000" stroke-width="1.500000" stroke-linejoin="round" stroke-linecap="round"/>
	<path id="Vector" d="M14 8.75L14 19.25" stroke="#FFFFFF" stroke-opacity="1.000000" stroke-width="1.500000" stroke-linejoin="round" stroke-linecap="round"/>
	<path id="Vector" d="M25.66 14C25.66 20.43 20.43 25.66 14 25.66C7.55 25.66 2.33 20.43 2.33 14C2.33 7.56 7.55 2.33 14 2.33" stroke="#FFFFFF" stroke-opacity="1.000000" stroke-width="1.500000" stroke-linejoin="round" stroke-linecap="round"/>
	<path id="Vector" d="M25.66 7L25.66 2.33L21 2.33" stroke="#FFFFFF" stroke-opacity="1.000000" stroke-width="1.500000" stroke-linejoin="round" stroke-linecap="round"/>
	<path id="Vector" d="M19.83 8.16L25.66 2.33" stroke="#FFFFFF" stroke-opacity="1.000000" stroke-width="1.500000" stroke-linejoin="round" stroke-linecap="round"/>
	<g opacity="0.000000"/>
</svg>
