<svg width="24.000000" height="24.000000" viewBox="0 0 24 24" fill="none" xmlns="http://www.w3.org/2000/svg" xmlns:xlink="http://www.w3.org/1999/xlink">
	<desc>
			Created with Pixso.
	</desc>
	<defs>
		<clipPath id="clip13_1663">
			<rect id="line/user/contacts-line" rx="0.000000" width="23.000000" height="23.000000" transform="translate(0.500000 0.500000)" fill="white" fill-opacity="0"/>
		</clipPath>
	</defs>
	<rect id="line/user/contacts-line" rx="0.000000" width="23.000000" height="23.000000" transform="translate(0.500000 0.500000)" fill="#FFFFFF" fill-opacity="0"/>
	<g clip-path="url(#clip13_1663)">
		<path id="Vector" d="M19 7L24 7L24 9L19 9L19 7ZM17 12L24 12L24 14L17 14L17 12ZM20 17L24 17L24 19L20 19L20 17ZM2 22C2 19.87 2.84 17.84 4.34 16.34C5.84 14.84 7.87 14 10 14C12.12 14 14.15 14.84 15.65 16.34C17.15 17.84 18 19.87 18 22L16 22C16 20.4 15.36 18.88 14.24 17.75C13.11 16.63 11.59 16 10 16C8.4 16 6.88 16.63 5.75 17.75C4.63 18.88 4 20.4 4 22L2 22ZM10 13C6.68 13 4 10.31 4 7C4 3.68 6.68 1 10 1C13.31 1 16 3.68 16 7C16 10.31 13.31 13 10 13ZM10 11C12.21 11 14 9.2 14 7C14 4.79 12.21 3 10 3C7.79 3 6 4.79 6 7C6 9.2 7.79 11 10 11Z" fill="#000000" fill-opacity="1.000000" fill-rule="nonzero"/>
	</g>
</svg>
