<svg width="88.000000" height="18.000000" viewBox="0 0 88 18" fill="none" xmlns="http://www.w3.org/2000/svg" xmlns:xlink="http://www.w3.org/1999/xlink">
	<desc>
			Created with Pixso.
	</desc>
	<defs/>
	<path id="path" d="M13.43 1L2.59 1C0.61 1 -0.63 3.14 0.33 4.89L6.99 16.45C7.44 17.18 8.52 17.18 8.97 16.45L15.63 4.89C16.65 3.14 15.41 1 13.43 1ZM7.05 12.95L5.58 10.13L2.08 3.87C1.85 3.48 2.13 2.97 2.64 2.97L7.05 2.97L7.05 12.95ZM13.94 3.87L10.44 10.13L8.97 12.95L8.97 2.97L13.37 2.97C13.88 2.97 14.16 3.48 13.94 3.87Z" fill="#FFFFFF" fill-opacity="1.000000" fill-rule="nonzero"/>
	<path id="TonStaker" d="M53.2 6.74L51.13 6.74C51.05 5.94 50.42 5.47 49.39 5.47C48.33 5.47 47.75 5.96 47.75 6.61C47.74 7.34 48.48 7.67 49.37 7.87L50.28 8.09C52.05 8.49 53.33 9.39 53.33 11.09C53.33 12.95 51.87 14.14 49.38 14.14C46.91 14.14 45.33 13 45.28 10.8L47.36 10.8C47.43 11.82 48.24 12.33 49.36 12.33C50.45 12.33 51.15 11.83 51.16 11.08C51.15 10.4 50.54 10.08 49.43 9.81L48.32 9.53C46.6 9.12 45.54 8.26 45.55 6.76C45.54 4.91 47.17 3.67 49.4 3.67C51.67 3.67 53.16 4.93 53.2 6.74ZM23.64 5.59L20.52 5.59L20.52 3.81L28.88 3.81L28.88 5.59L25.77 5.59L25.77 14L23.64 14L23.64 5.59ZM69.58 14L67.46 14L67.46 3.81L69.58 3.81L69.58 9.26L69.69 9.26L72.14 6.36L74.57 6.36L71.73 9.66L74.71 14L72.23 14L70.15 10.92L69.58 11.57L69.58 14ZM57.08 6.36L58.52 6.36L58.52 7.95L57.08 7.95L57.08 11.65C57.08 12.23 57.37 12.4 57.8 12.4C58 12.4 58.22 12.34 58.32 12.32L58.65 13.9C58.44 13.97 58.05 14.08 57.51 14.1C55.97 14.16 54.95 13.42 54.96 11.93L54.96 7.95L53.92 7.95L53.92 6.36L54.96 6.36L54.96 4.53L57.08 4.53L57.08 6.36ZM85.21 14L83.09 14L83.09 6.36L85.14 6.36L85.14 7.69L85.22 7.69C85.5 6.75 86.2 6.25 87.06 6.25C87.27 6.25 87.54 6.28 87.72 6.33L87.72 8.2C87.53 8.14 87.12 8.09 86.83 8.09C85.9 8.09 85.21 8.73 85.21 9.67L85.21 14ZM36.04 10.21C36.04 12.56 34.6 14.15 32.28 14.15C29.96 14.15 28.52 12.56 28.52 10.21C28.52 7.84 29.96 6.26 32.28 6.26C34.6 6.26 36.04 7.84 36.04 10.21ZM40.71 8.02C39.85 8.02 39.26 8.59 39.26 9.58L39.26 14L37.14 14L37.14 6.36L39.16 6.36L39.16 7.71L39.25 7.71C39.59 6.82 40.41 6.26 41.55 6.26C43.14 6.26 44.18 7.35 44.18 9.13L44.18 14L42.06 14L42.06 9.51C42.07 8.58 41.56 8.02 40.71 8.02ZM64.02 12.94C63.65 13.65 62.92 14.14 61.79 14.14C60.33 14.14 59.26 13.37 59.26 11.86C59.26 10.16 60.61 9.65 62.13 9.51C63.45 9.38 63.97 9.32 63.97 8.82L63.97 8.8C63.97 8.17 63.56 7.81 62.84 7.81C62.08 7.81 61.63 8.18 61.48 8.69L59.52 8.53C59.82 7.14 61.02 6.26 62.85 6.26C64.55 6.26 66.09 7.03 66.09 8.84L66.09 14L64.08 14L64.08 12.94L64.02 12.94ZM81.94 11.81C81.65 13.23 80.37 14.15 78.48 14.15C76.13 14.15 74.69 12.63 74.69 10.21C74.69 7.86 76.15 6.26 78.4 6.26C80.42 6.26 81.99 7.54 81.99 10.14L81.99 10.72L76.79 10.72L76.79 10.72C76.79 11.86 77.46 12.56 78.52 12.56C79.22 12.56 79.77 12.26 79.99 11.68L81.94 11.81ZM78.43 7.84C77.49 7.84 76.83 8.54 76.79 9.4L80 9.4C79.99 8.5 79.35 7.84 78.43 7.84ZM30.68 10.19C30.68 11.52 31.22 12.5 32.29 12.5C33.34 12.5 33.89 11.52 33.89 10.19C33.89 8.86 33.34 7.87 32.29 7.87C31.22 7.87 30.68 8.86 30.68 10.19ZM61.28 11.79C61.28 12.37 61.75 12.68 62.4 12.68C63.33 12.68 63.99 12.07 63.99 11.26L63.99 10.45C63.73 10.62 62.98 10.73 62.52 10.8C61.77 10.9 61.28 11.2 61.28 11.79Z" fill="#EEEEEE" fill-opacity="1.000000" fill-rule="evenodd"/>
</svg>
