<svg width="28.000000" height="28.000000" viewBox="0 0 28 28" fill="none" xmlns="http://www.w3.org/2000/svg" xmlns:xlink="http://www.w3.org/1999/xlink">
	<desc>
			Created with Pixso.
	</desc>
	<defs/>
	<path id="Vector" d="M20.34 17.7C20.45 18.96 21.6 19.89 22.86 19.89L25.08 19.89L25.08 21.27C25.08 23.69 23.11 25.66 20.69 25.66L7.3 25.66C4.88 25.66 2.91 23.69 2.91 21.27L2.91 13.42C2.91 11.01 4.88 9.04 7.3 9.04L20.69 9.04C23.11 9.04 25.08 11.01 25.08 13.42L25.08 15.1L22.72 15.1C22.07 15.1 21.47 15.36 21.04 15.8C20.55 16.28 20.27 16.97 20.34 17.7Z" stroke="#17181C" stroke-opacity="1.000000" stroke-width="1.500000" stroke-linejoin="round"/>
	<path id="Vector" d="M2.91 14.47L2.91 9.14C2.91 7.75 3.76 6.52 5.06 6.03L14.32 2.53C15.77 1.98 17.32 3.05 17.32 4.6L17.32 9.04" stroke="#17181C" stroke-opacity="1.000000" stroke-width="1.500000" stroke-linejoin="round" stroke-linecap="round"/>
	<path id="Vector" d="M26.31 18.7C26.31 19.34 25.8 19.86 25.15 19.89L22.86 19.89C21.6 19.89 20.45 18.97 20.34 17.7C20.27 16.97 20.55 16.28 21.04 15.8C21.47 15.36 22.07 15.1 22.72 15.1L25.15 15.1C25.8 15.13 26.31 15.65 26.31 16.29L26.31 18.7Z" stroke="#17181C" stroke-opacity="1.000000" stroke-width="1.500000" stroke-linejoin="round"/>
	<path id="Vector" d="M8.16 14L16.33 14" stroke="#17181C" stroke-opacity="1.000000" stroke-width="1.500000" stroke-linejoin="round" stroke-linecap="round"/>
	<g opacity="0.000000"/>
</svg>
